Coordinates
version=1
nRows=25
nColumns=34
inDegrees=no

Units are S.I. units (second, meters, Newtons, ...)
If the header above contains a line with 'inDegrees', this indicates whether rotational values are in degrees (yes) or radians (no).

endheader
time	pelvis_tilt	pelvis_list	pelvis_rotation	pelvis_tx	pelvis_ty	pelvis_tz	hip_flexion_r	hip_adduction_r	hip_rotation_r	knee_angle_r	ankle_angle_r	subtalar_angle_r	mtp_angle_r	hip_flexion_l	hip_adduction_l	hip_rotation_l	knee_angle_l	ankle_angle_l	subtalar_angle_l	mtp_angle_l	lumbar_extension	lumbar_bending	lumbar_rotation	arm_flex_r	arm_add_r	arm_rot_r	elbow_flex_r	pro_sup_r	arm_flex_l	arm_add_l	arm_rot_l	elbow_flex_l	pro_sup_l
2.28	-0.206337	-0.122942	-0.121584	-0.13916	1.17312	-0.608496	0.15344	0.0613271	-0.348486	0.0192995	-0.8088	0.0278548	-0.0930216	0.272484	-0.26332	-0.417144	0.116336	-0.765127	0.305137	-0.0930175	-0.165463	0.0563594	-0.0651006	1.24457	-0.709819	0.738709	2.02319	1.47815	1.73186	-1.2384	1.14018	2.16295	1.16211
2.29	-0.197132	-0.121938	-0.122062	-0.139058	1.18715	-0.607823	0.144315	0.0619083	-0.341153	0.0165834	-0.798472	0.0286655	-0.0930113	0.266404	-0.262666	-0.416351	0.130806	-0.763884	0.30103	-0.0930071	-0.17694	0.0490304	-0.0498569	1.13268	-0.759931	0.669323	2.0196	1.47611	1.60502	-1.26274	1.05138	2.16844	1.1729
2.3	-0.186761	-0.122255	-0.121689	-0.139196	1.20026	-0.607161	0.134413	0.0638816	-0.340825	0.0106588	-0.786878	0.0306703	-0.093001	0.25761	-0.263441	-0.418086	0.138996	-0.76302	0.298006	-0.0929968	-0.190919	0.0426167	-0.0335677	1.01487	-0.802373	0.589795	2.01234	1.47501	1.4636	-1.27397	0.945665	2.16755	1.18502
2.31	-0.175797	-0.123474	-0.120198	-0.139532	1.21237	-0.606556	0.124399	0.066607	-0.347083	0.00316737	-0.775346	0.0329572	-0.0929906	0.246867	-0.265016	-0.422404	0.140747	-0.76224	0.297767	-0.0929864	-0.20631	0.0371593	-0.0179189	0.895321	-0.834874	0.504863	2.00125	1.47451	1.31417	-1.2735	0.830133	2.16145	1.19675
2.32	-0.164935	-0.125124	-0.11749	-0.139993	1.22344	-0.606034	0.114966	0.0694655	-0.358099	-0.00444228	-0.76509	0.0349764	-0.0929803	0.235428	-0.266835	-0.428436	0.137109	-0.761258	0.301077	-0.092976	-0.221952	0.0326232	-0.00441741	0.778639	-0.856078	0.419721	1.98656	1.47442	1.16385	-1.26336	0.712332	2.15156	1.20649
2.33	-0.154833	-0.126789	-0.113652	-0.140535	1.23343	-0.605602	0.106627	0.071967	-0.371156	-0.011146	-0.757031	0.0365362	-0.09297	0.224676	-0.268493	-0.434734	0.129916	-0.759935	0.307824	-0.0929657	-0.236762	0.0289044	0.00593042	0.669155	-0.865809	0.339238	1.96887	1.4748	1.01948	-1.24564	0.599476	2.13927	1.21325
2.34	-0.14599	-0.128185	-0.108932	-0.141096	1.24226	-0.605261	0.0996653	0.0737943	-0.383291	-0.0163937	-0.751667	0.0377464	-0.0929597	0.215808	-0.269789	-0.439677	0.121318	-0.758307	0.317216	-0.0929553	-0.249885	0.025872	0.0127589	0.570311	-0.865038	0.267329	1.94905	1.47602	0.886972	-1.22218	0.497802	2.12562	1.21685
2.35	-0.138703	-0.129185	-0.103685	-0.141644	1.2499	-0.604995	0.0941628	0.0748229	-0.391857	-0.0200455	-0.749033	0.0389282	-0.0929494	0.209647	-0.27074	-0.441832	0.113354	-0.756546	0.32803	-0.092945	-0.260769	0.0234275	0.0162982	0.484336	-0.855599	0.206609	1.92807	1.4787	0.770839	-1.1944	0.412058	2.11119	1.21811
2.36	-0.133059	-0.129818	-0.0982945	-0.142177	1.25634	-0.604788	0.0900644	0.0751013	-0.394962	-0.0222549	-0.748762	0.040509	-0.0929391	0.206571	-0.271538	-0.440205	0.10763	-0.754869	0.338852	-0.0929346	-0.269175	0.0215401	0.0172033	0.412216	-0.839786	0.158339	1.90676	1.48364	0.673872	-1.16342	0.345154	2.0962	1.21866
2.37	-0.128956	-0.130248	-0.0930974	-0.142712	1.26157	-0.604629	0.0872471	0.0747962	-0.391705	-0.0233431	-0.750195	0.0429081	-0.0929288	0.206536	-0.272469	-0.434365	0.105129	-0.753455	0.348274	-0.0929243	-0.27515	0.0202521	0.0163258	0.353869	-0.819955	0.122597	1.88574	1.49156	0.597031	-1.13008	0.298042	2.08053	1.22058
2.38	-0.126149	-0.130704	-0.0883184	-0.143281	1.26563	-0.604509	0.085555	0.0741201	-0.382216	-0.0236904	-0.752542	0.046428	-0.0929186	0.209149	-0.273815	-0.424456	0.106161	-0.752398	0.355039	-0.0929139	-0.278987	0.0196585	0.0144878	0.308465	-0.798208	0.0985985	1.86538	1.50275	0.539574	-1.09507	0.269837	2.06396	1.22581
2.39	-0.124308	-0.131412	-0.0840349	-0.1439	1.26854	-0.604428	0.0847995	0.0732679	-0.367557	-0.0236574	-0.755015	0.0512173	-0.0929083	0.213778	-0.275763	-0.411157	0.110432	-0.751693	0.358204	-0.0929036	-0.281154	0.0198679	0.0123331	0.274702	-0.776216	0.0849938	1.84582	1.51685	0.499456	-1.05903	0.258222	2.04628	1.23566
2.4	-0.123062	-0.132533	-0.0801754	-0.144576	1.27034	-0.604397	0.0847187	0.072392	-0.349478	-0.0235418	-0.756958	0.0572694	-0.092898	0.219673	-0.278364	-0.395595	0.117183	-0.751246	0.357283	-0.0928933	-0.282192	0.0209553	0.0102661	0.251023	-0.755149	0.0800991	1.82709	1.53273	0.473861	-1.02251	0.260031	2.02733	1.25058
2.41	-0.122032	-0.134147	-0.0765554	-0.145322	1.27107	-0.604432	0.0849968	0.0715768	-0.330085	-0.0235618	-0.757899	0.064418	-0.0928877	0.226062	-0.281536	-0.379203	0.125379	-0.750895	0.352339	-0.0928829	-0.282625	0.0229328	0.00847229	0.235777	-0.735705	0.0820864	1.80922	1.54873	0.459739	-0.98599	0.271843	2.00708	1.27008
2.42	-0.120893	-0.13625	-0.0729423	-0.14613	1.27075	-0.604542	0.0853218	0.070832	-0.311454	-0.0238579	-0.757545	0.0723259	-0.0928774	0.232239	-0.285101	-0.363525	0.133907	-0.750429	0.343984	-0.0928726	-0.282892	0.0257434	0.00698074	0.227354	-0.718178	0.0891412	1.79224	1.56301	0.454201	-0.949842	0.290464	1.98561	1.29282
2.43	-0.119439	-0.138763	-0.0691373	-0.146985	1.2694	-0.604732	0.0854738	0.0701093	-0.295248	-0.024501	-0.755706	0.0804657	-0.0928671	0.237657	-0.28885	-0.349953	0.141764	-0.749579	0.333266	-0.0928623	-0.283265	0.0292704	0.00573682	0.22429	-0.702551	0.0995856	1.77618	1.57429	0.454753	-0.914362	0.313215	1.96311	1.31688
2.44	-0.117595	-0.141554	-0.0650437	-0.147874	1.26703	-0.604999	0.0853513	0.0693235	-0.282515	-0.0255027	-0.752261	0.0881715	-0.0928569	0.241942	-0.292581	-0.339573	0.148166	-0.748086	0.321555	-0.0928519	-0.283853	0.0333478	0.00465561	0.225367	-0.688595	0.112014	1.76102	1.58211	0.459359	-0.879779	0.338029	1.93991	1.34007
2.45	-0.115399	-0.144471	-0.0607014	-0.148779	1.26365	-0.605327	0.08498	0.0683786	-0.273618	-0.0268197	-0.747097	0.0947464	-0.0928466	0.244883	-0.296142	-0.333023	0.152607	-0.745749	0.310357	-0.0928416	-0.284628	0.0377798	0.00366301	0.229659	-0.675963	0.125374	1.74674	1.58669	0.466419	-0.846288	0.363411	1.91639	1.36024
2.46	-0.11299	-0.147367	-0.0562817	-0.149688	1.25926	-0.605693	0.0845128	0.0671929	-0.268273	-0.0283509	-0.740033	0.09961	-0.0928363	0.24645	-0.299437	-0.330353	0.154887	-0.742433	0.301033	-0.0928313	-0.285453	0.0423677	0.00272672	0.236503	-0.664276	0.138959	1.73329	1.58869	0.474741	-0.814045	0.38835	1.89293	1.37599
2.47	-0.110567	-0.15013	-0.0520523	-0.150597	1.25383	-0.606072	0.0841947	0.0657143	-0.265678	-0.0299282	-0.730776	0.102432	-0.092826	0.246771	-0.302433	-0.331017	0.155117	-0.738038	0.294549	-0.0928209	-0.286141	0.046927	0.001873	0.245443	-0.653172	0.152343	1.72063	1.58892	0.483505	-0.783175	0.412229	1.86986	1.38682
2.48	-0.108336	-0.15269	-0.0483224	-0.15151	1.24737	-0.606436	0.0843102	0.0639284	-0.264678	-0.0313059	-0.718901	0.103221	-0.0928157	0.246109	-0.305161	-0.333981	0.153697	-0.732452	0.291294	-0.0928106	-0.286501	0.0513017	0.00119415	0.256148	-0.642344	0.165272	1.70875	1.58819	0.492233	-0.753756	0.434744	1.84737	1.39304
2.49	-0.106455	-0.155021	-0.0453775	-0.152432	1.23987	-0.606758	0.0851323	0.0618616	-0.263957	-0.0321552	-0.703891	0.102351	-0.0928055	0.244837	-0.307705	-0.337883	0.151279	-0.7255	0.291	-0.0928003	-0.286381	0.0553781	0.000837513	0.268336	-0.631557	0.177564	1.69772	1.5872	0.50075	-0.725819	0.45583	1.82558	1.39556
2.5	-0.10503	-0.157129	-0.043425	-0.153377	1.23132	-0.607011	0.0868788	0.0595753	-0.26223	-0.0320674	-0.685217	0.100507	-0.0927952	0.243404	-0.31019	-0.341219	0.148713	-0.716914	0.292771	-0.0927899	-0.285702	0.0590937	0.000971827	0.281738	-0.620649	0.189042	1.68761	1.58646	0.509138	-0.699343	0.475586	1.80446	1.39557
2.51	-0.104116	-0.159052	-0.0425594	-0.15436	1.22172	-0.607179	0.0897	0.0571482	-0.258398	-0.030578	-0.662443	0.098583	-0.0927849	0.242314	-0.312754	-0.342488	0.14698	-0.706344	0.295218	-0.0927796	-0.284467	0.0624332	0.00174548	0.296083	-0.609529	0.199513	1.67857	1.58628	0.517665	-0.674272	0.494206	1.78396	1.39431
2.52	-0.103711	-0.160848	-0.0427469	-0.155401	1.21108	-0.607251	0.0936931	0.0546599	-0.251674	-0.0272077	-0.635358	0.0975484	-0.0927747	0.242107	-0.315516	-0.340314	0.147106	-0.693416	0.296661	-0.0927693	-0.28275	0.0654237	0.00325556	0.311124	-0.598179	0.208778	1.67078	1.58679	0.526719	-0.650532	0.511917	1.76398	1.39282
